<svg width="261" height="261" viewBox="0 0 261 261" fill="none" xmlns="http://www.w3.org/2000/svg">
<path d="M191.853 130.413C191.853 146.708 185.38 162.336 173.858 173.858C162.336 185.38 146.708 191.853 130.413 191.853C114.118 191.853 98.4909 185.38 86.9687 173.858C75.4465 162.336 68.9734 146.708 68.9734 130.413C68.9734 114.118 75.4465 98.4909 86.9687 86.9687C98.4909 75.4465 114.118 68.9734 130.413 68.9734C146.708 68.9734 162.336 75.4465 173.858 86.9687C185.38 98.4909 191.853 114.118 191.853 130.413Z" stroke="#ffffff" stroke-width="13.6533" stroke-linecap="round" stroke-linejoin="round"/>
<path d="M212.079 38.5975C207.282 43.0101 204.434 49.1478 204.162 55.6601C203.89 62.1725 206.217 68.5261 210.629 73.3233C215.042 78.1205 221.179 80.9684 227.692 81.2403C234.204 81.5122 240.558 79.186 245.355 74.7733C250.152 70.3607 253 64.223 253.272 57.7107C253.544 51.1983 251.218 44.8447 246.805 40.0475C242.392 35.2503 236.255 32.4024 229.742 32.1305C223.23 31.8586 216.876 34.1848 212.079 38.5975ZM212.079 38.5975C189.607 18.5475 160.53 7.48742 130.413 7.53347C62.5467 7.53347 7.53345 62.5468 7.53345 130.413C7.53345 198.28 62.5467 253.293 130.413 253.293C198.28 253.293 253.293 198.28 253.293 130.413C253.293 126.26 253.088 122.164 252.679 118.125" stroke="#ffffff" stroke-width="13.6533" stroke-linecap="round" stroke-linejoin="round"/>
</svg>
